<svg xmlns="http://www.w3.org/2000/svg" width="150" height="56" viewBox="0 0 150 56" fill="none"><path d="M11.6201 14.2017H18.8537V46.7867C18.8537 49.0366 17.0556 50.859 14.8357 50.859H8.00488V47.1949H9.6127C10.7226 47.1949 11.6233 46.282 11.6233 45.1571V14.2017H11.6201Z" fill="white"></path><path d="M134.599 34.364H132.189C130.524 34.364 129.173 32.9948 129.173 31.3073V14.1985H121.94V34.3608H119.53C117.865 34.3608 116.514 32.9916 116.514 31.3041V14.1952H109.28V34.3576H103.252C101.587 34.3576 100.236 32.9883 100.236 31.3009V22.3399C100.236 17.8401 96.6364 14.192 92.1967 14.192H88.981C88.2041 14.192 87.573 13.5524 87.573 12.765V10.5247H80.3394V14.8027C80.3394 16.4901 81.6903 17.8562 83.3552 17.8562H88.981C91.2009 17.8562 92.999 19.6786 92.999 21.9285V34.3511H90.5888C88.9239 34.3511 87.573 32.9819 87.573 31.2945V22.4427C87.573 20.7778 86.5741 19.28 85.0455 18.6597L74.999 14.5874C72.3605 13.5171 69.4874 15.4873 69.4874 18.3704V34.3479H67.0772C65.4123 34.3479 64.0645 32.9787 64.0645 31.2913V14.1824H56.8309V34.3447H56.2284C54.5635 34.3447 53.2157 32.9755 53.2157 31.2881V14.1792H45.9821V34.3415H43.5719C41.907 34.3415 40.5593 32.9723 40.5593 31.2848V18.2515C40.5593 16.0016 38.7612 14.1792 36.5413 14.1792H26.4948C24.2749 14.1792 22.4768 16.0016 22.4768 18.2515V28.8421H29.7104V21.5106C29.7104 20.4982 30.5191 19.6786 31.518 19.6786C32.517 19.6786 33.3256 20.4982 33.3256 21.5106V34.3415H22.4736V41.689L40.5593 41.673H69.6745C70.0614 42.9458 71.0508 43.9807 72.3573 44.376L82.4039 47.4295C84.9821 48.2137 87.5762 46.2563 87.5762 43.5275V41.6697H141.83V14.176H134.596V34.3383L134.599 34.364ZM80.3552 40.8758C80.3552 41.5572 79.7115 42.0458 79.0677 41.8529L78.8901 41.8015C77.6089 41.419 76.7273 40.2266 76.7273 38.8702V21.1924C76.7273 20.4757 77.4377 19.9839 78.0973 20.2443L78.4366 20.3793C79.5941 20.8357 80.3552 21.967 80.3552 23.2238V40.8758Z" fill="white"></path><path d="M53.216 5.03505H45.9824V12.3665H53.216V5.03505Z" fill="#EF413D"></path><path d="M116.515 5.03497H109.281V12.3664H116.515V5.03497Z" fill="#EF413D"></path><path d="M129.172 5.03489H121.938V12.3663H129.172V5.03489Z" fill="#EF413D"></path><path d="M141.832 5.03489H134.599V12.3663H141.832V5.03489Z" fill="#EF413D"></path><path d="M58.6418 43.5275H51.4082V50.8589H58.6418V43.5275Z" fill="#EF413D"></path></svg>